<svg xmlns="http://www.w3.org/2000/svg" viewBox="0 0 512 62">
  <path fill="#fbbc04" d="M59.01 44.97a8.014 8.014 0 0 1 2.92-2.92l29.11-16.8a8.009 8.009 0 0 1 10.95 2.91c2.22 3.83.92 8.73-2.91 10.95l-29.11 16.8A8.009 8.009 0 0 1 59.02 53c-1.49-2.57-1.39-5.62-.01-8.03z" />
  <path fill="#0f9d58" d="M96.27 39.48c-1.36 0-2.73-.34-3.99-1.07L61.96 20.96c-3.84-2.21-5.16-7.11-2.95-10.94 2.21-3.84 7.11-5.16 10.94-2.95l30.33 17.45c3.84 2.21 5.16 7.11 2.95 10.94a8.038 8.038 0 0 1-6.96 4.02z" />
  <path fill="#ea4335" d="M46.21 18.03a8.014 8.014 0 0 1-2.92 2.92l-29.11 16.8a8.009 8.009 0 0 1-10.95-2.91 8.009 8.009 0 0 1 2.91-10.95l29.11-16.8A8.009 8.009 0 0 1 46.2 10c1.49 2.57 1.39 5.62.01 8.03z" />
  <path fill="#4285f4" d="M8.94 23.52c1.36 0 2.73.34 3.99 1.07l30.33 17.45c3.84 2.21 5.16 7.11 2.95 10.94-2.21 3.84-7.11 5.16-10.94 2.95L4.94 38.49C1.1 36.28-.22 31.38 1.99 27.55a8.01 8.01 0 0 1 6.95-4.03z" />
  <g>
    <path fill="#676C72" d="M137.25 48.08a18.726 18.726 0 0 1-6.97-6.86c-1.72-2.91-2.58-6.15-2.58-9.72s.86-6.81 2.58-9.72c1.72-2.91 4.04-5.2 6.97-6.86 2.93-1.67 6.12-2.5 9.59-2.5 2.76 0 5.32.49 7.7 1.48s4.37 2.36 5.97 4.13l-3.98 3.98a12.025 12.025 0 0 0-4.26-3.06c-1.65-.71-3.48-1.07-5.49-1.07-2.35 0-4.54.56-6.58 1.68-2.04 1.12-3.67 2.72-4.9 4.8-1.22 2.08-1.84 4.46-1.84 7.14 0 2.69.61 5.07 1.84 7.14 1.22 2.08 2.86 3.67 4.9 4.8 2.04 1.12 4.25 1.68 6.63 1.68 2.18 0 4-.32 5.46-.97a14 14 0 0 0 3.93-2.6c.75-.75 1.39-1.68 1.91-2.81.53-1.12.88-2.35 1.05-3.67h-12.4v-5.1h17.81c.17.95.26 1.94.26 2.96 0 2.31-.36 4.53-1.07 6.66-.71 2.13-1.85 3.97-3.42 5.54-3.44 3.64-7.94 5.46-13.52 5.46-3.47-.01-6.67-.84-9.59-2.51zm33.32-34.85h11.68c3.78 0 7.07.77 9.9 2.3 2.82 1.53 4.99 3.68 6.51 6.45 1.51 2.77 2.27 5.94 2.27 9.52s-.76 6.74-2.27 9.52c-1.51 2.77-3.68 4.92-6.51 6.45-2.82 1.53-6.12 2.3-9.9 2.3h-11.68V13.23zm11.58 31.08c4.08 0 7.27-1.13 9.57-3.39 2.3-2.26 3.44-5.4 3.44-9.41 0-3.98-1.15-7.11-3.44-9.39-2.3-2.28-5.49-3.42-9.57-3.42h-5.87v25.61h5.87zm32.15 3.77a18.726 18.726 0 0 1-6.97-6.86c-1.72-2.91-2.58-6.15-2.58-9.72s.86-6.81 2.58-9.72c1.72-2.91 4.04-5.2 6.97-6.86 2.93-1.67 6.12-2.5 9.59-2.5 2.76 0 5.32.49 7.7 1.48s4.37 2.36 5.97 4.13l-3.98 3.98a12.025 12.025 0 0 0-4.26-3.06c-1.65-.71-3.48-1.07-5.49-1.07-2.35 0-4.54.56-6.58 1.68-2.04 1.12-3.67 2.72-4.9 4.8-1.22 2.08-1.84 4.46-1.84 7.14 0 2.69.61 5.07 1.84 7.14 1.22 2.08 2.86 3.67 4.9 4.8 2.04 1.12 4.25 1.68 6.63 1.68 2.18 0 4-.32 5.46-.97a14 14 0 0 0 3.93-2.6c.75-.75 1.39-1.68 1.91-2.81.53-1.12.88-2.35 1.05-3.67h-12.4v-5.1h17.81c.17.95.26 1.94.26 2.96 0 2.31-.36 4.53-1.07 6.66-.71 2.13-1.85 3.97-3.42 5.54-3.44 3.64-7.94 5.46-13.52 5.46-3.47-.01-6.67-.84-9.59-2.51zm50.67 0c-2.89-1.67-5.16-3.95-6.81-6.86-1.65-2.91-2.47-6.15-2.47-9.72s.82-6.81 2.47-9.72c1.65-2.91 3.92-5.2 6.81-6.86 2.89-1.67 6.11-2.5 9.64-2.5 2.72 0 5.21.52 7.48 1.56 2.26 1.04 4.23 2.51 5.89 4.41l-3.11 3.01c-1.4-1.67-2.92-2.89-4.57-3.67-1.65-.78-3.55-1.17-5.69-1.17-2.65 0-5.09.62-7.3 1.86-2.21 1.24-3.97 2.99-5.28 5.26-1.31 2.26-1.96 4.87-1.96 7.83s.65 5.57 1.96 7.83 3.07 4.01 5.28 5.26c2.21 1.24 4.64 1.86 7.3 1.86 4.42 0 8.18-1.82 11.28-5.46l3.16 3.06c-1.7 2.01-3.79 3.6-6.28 4.77-2.48 1.17-5.2 1.76-8.16 1.76-3.54-.01-6.75-.84-9.64-2.51zm30.76 1.38c-1.5-.75-2.65-1.78-3.47-3.09-.82-1.31-1.22-2.8-1.22-4.46 0-2.76 1.04-4.91 3.11-6.45 2.07-1.55 4.69-2.32 7.86-2.32 1.56 0 3.02.17 4.36.51 1.34.34 2.37.73 3.09 1.17v-1.58c0-1.94-.68-3.5-2.04-4.67-1.36-1.17-3.08-1.76-5.15-1.76-1.46 0-2.81.32-4.03.94a7.47 7.47 0 0 0-2.91 2.63l-3.27-2.45c1.02-1.56 2.42-2.79 4.21-3.67 1.79-.88 3.77-1.33 5.94-1.33 3.54 0 6.32.93 8.34 2.78 2.02 1.85 3.04 4.38 3.04 7.58v16.48h-4.13v-3.72h-.2c-.75 1.26-1.87 2.33-3.37 3.21-1.5.88-3.18 1.33-5.05 1.33-1.91-.01-3.61-.38-5.11-1.13zm9.6-3.83a8.51 8.51 0 0 0 3.01-3.01c.75-1.26 1.12-2.64 1.12-4.13-.82-.54-1.82-.99-3.01-1.33-1.19-.34-2.45-.51-3.78-.51-2.38 0-4.18.49-5.38 1.48-1.21.99-1.81 2.26-1.81 3.83 0 1.43.54 2.59 1.63 3.47 1.09.89 2.47 1.33 4.13 1.33 1.47 0 2.83-.38 4.09-1.13zm15.25 2.99c-1.87-1.31-3.2-2.99-3.98-5.03l3.88-1.73c.65 1.57 1.61 2.77 2.88 3.62 1.28.85 2.68 1.28 4.21 1.28 1.63 0 3.03-.33 4.18-.99 1.16-.66 1.73-1.61 1.73-2.83 0-1.09-.46-1.96-1.38-2.63-.92-.66-2.36-1.23-4.34-1.71l-3.16-.82c-2.08-.51-3.78-1.38-5.1-2.6-1.33-1.22-1.99-2.81-1.99-4.75 0-1.5.45-2.81 1.35-3.95.9-1.14 2.1-2.02 3.6-2.63 1.5-.61 3.11-.92 4.85-.92 2.28 0 4.31.49 6.1 1.48s3.05 2.36 3.8 4.13l-3.78 1.74c-1.16-2.31-3.21-3.47-6.17-3.47-1.43 0-2.68.33-3.75 1-1.07.66-1.61 1.51-1.61 2.53 0 .95.37 1.73 1.12 2.32.75.6 1.87 1.08 3.37 1.45l3.78.97c2.55.65 4.47 1.61 5.77 2.88 1.29 1.28 1.94 2.83 1.94 4.67 0 1.6-.46 3-1.38 4.21-.92 1.21-2.16 2.14-3.72 2.78-1.57.65-3.3.97-5.2.97-2.8-.01-5.13-.66-7-1.97zm24.65.84c-1.5-.75-2.65-1.78-3.47-3.09-.82-1.31-1.22-2.8-1.22-4.46 0-2.76 1.04-4.91 3.11-6.45 2.07-1.55 4.69-2.32 7.86-2.32 1.56 0 3.02.17 4.36.51 1.34.34 2.37.73 3.09 1.17v-1.58c0-1.94-.68-3.5-2.04-4.67-1.36-1.17-3.08-1.76-5.15-1.76-1.46 0-2.81.32-4.03.94a7.47 7.47 0 0 0-2.91 2.63l-3.27-2.45c1.02-1.56 2.42-2.79 4.21-3.67 1.79-.88 3.77-1.33 5.94-1.33 3.54 0 6.32.93 8.34 2.78 2.02 1.85 3.04 4.38 3.04 7.58v16.48h-4.13v-3.72h-.2c-.75 1.26-1.87 2.33-3.37 3.21-1.5.88-3.18 1.33-5.05 1.33-1.92-.01-3.62-.38-5.11-1.13zm9.59-3.83a8.51 8.51 0 0 0 3.01-3.01c.75-1.26 1.12-2.64 1.12-4.13-.82-.54-1.82-.99-3.01-1.33-1.19-.34-2.45-.51-3.78-.51-2.38 0-4.18.49-5.38 1.48-1.21.99-1.81 2.26-1.81 3.83 0 1.43.54 2.59 1.63 3.47 1.09.89 2.47 1.33 4.13 1.33 1.47 0 2.83-.38 4.09-1.13zm21.3 3.6c-1.58-.9-2.76-2-3.55-3.29h-.2v3.83h-4.13V13.23h4.34V24l-.2 3.62h.2c.78-1.33 1.96-2.44 3.55-3.34 1.58-.9 3.36-1.35 5.33-1.35 2.31 0 4.42.6 6.33 1.79 1.9 1.19 3.4 2.84 4.49 4.95 1.09 2.11 1.63 4.47 1.63 7.09 0 2.65-.54 5.03-1.63 7.12-1.09 2.09-2.59 3.73-4.49 4.92-1.91 1.19-4.01 1.79-6.33 1.79-1.98-.01-3.75-.46-5.34-1.36zm9.06-3.8c1.33-.82 2.39-1.98 3.19-3.5.8-1.51 1.2-3.24 1.2-5.18 0-1.94-.4-3.67-1.2-5.18-.8-1.51-1.86-2.68-3.19-3.5-1.33-.82-2.74-1.22-4.24-1.22s-2.91.41-4.24 1.22c-1.33.82-2.38 1.97-3.16 3.47-.78 1.5-1.17 3.23-1.17 5.2 0 1.97.39 3.71 1.17 5.2.78 1.5 1.84 2.65 3.16 3.47 1.33.82 2.74 1.22 4.24 1.22 1.5.02 2.91-.38 4.24-1.2zm12.65-32.2h4.34v36.53h-4.34V13.23zm12.86 36.23c-1.5-.75-2.65-1.78-3.47-3.09-.82-1.31-1.22-2.8-1.22-4.46 0-2.76 1.04-4.91 3.11-6.45 2.07-1.55 4.69-2.32 7.86-2.32 1.56 0 3.02.17 4.36.51 1.34.34 2.37.73 3.09 1.17v-1.58c0-1.94-.68-3.5-2.04-4.67-1.36-1.17-3.08-1.76-5.15-1.76-1.46 0-2.81.32-4.03.94a7.47 7.47 0 0 0-2.91 2.63l-3.27-2.45c1.02-1.56 2.42-2.79 4.21-3.67 1.79-.88 3.77-1.33 5.94-1.33 3.54 0 6.32.93 8.34 2.78 2.02 1.85 3.04 4.38 3.04 7.58v16.48h-4.13v-3.72h-.2c-.75 1.26-1.87 2.33-3.37 3.21-1.5.88-3.18 1.33-5.05 1.33-1.91-.01-3.61-.38-5.11-1.13zm9.6-3.83a8.51 8.51 0 0 0 3.01-3.01c.75-1.26 1.12-2.64 1.12-4.13-.82-.54-1.82-.99-3.01-1.33-1.19-.34-2.45-.51-3.78-.51-2.38 0-4.18.49-5.38 1.48-1.21.99-1.81 2.26-1.81 3.83 0 1.43.54 2.59 1.63 3.47 1.09.89 2.47 1.33 4.13 1.33 1.47 0 2.83-.38 4.09-1.13zm13.42-21.89h4.13v3.83h.2c.71-1.29 1.85-2.39 3.42-3.29 1.56-.9 3.23-1.35 5-1.35 3.13 0 5.52.91 7.17 2.73 1.65 1.82 2.47 4.29 2.47 7.42v16.69h-4.34V33.75c0-2.41-.58-4.17-1.74-5.26-1.16-1.09-2.74-1.63-4.75-1.63-1.4 0-2.65.39-3.75 1.17-1.11.78-1.96 1.81-2.58 3.09a9.196 9.196 0 0 0-.92 4.01v14.64h-4.34V23.74zm32.75 25.03c-2.01-1.21-3.57-2.86-4.69-4.95-1.12-2.09-1.68-4.45-1.68-7.07s.56-4.98 1.68-7.09c1.12-2.11 2.69-3.76 4.69-4.95 2.01-1.19 4.27-1.79 6.79-1.79 2.82 0 5.2.66 7.12 1.96 1.92 1.31 3.29 3.05 4.11 5.23l-3.93 1.63c-.65-1.6-1.61-2.81-2.88-3.65-1.28-.83-2.82-1.25-4.62-1.25-1.53 0-2.96.42-4.29 1.25-1.33.83-2.39 2-3.19 3.5-.8 1.5-1.2 3.21-1.2 5.15 0 1.94.4 3.66 1.2 5.15.8 1.5 1.86 2.66 3.19 3.5 1.33.83 2.76 1.25 4.29 1.25 1.84 0 3.42-.43 4.75-1.28 1.33-.85 2.31-2.06 2.96-3.62l3.88 1.63c-.89 2.14-2.3 3.88-4.26 5.2-1.96 1.33-4.33 1.99-7.12 1.99-2.53.02-4.79-.58-6.8-1.79zm24.96.69c-1.5-.75-2.65-1.78-3.47-3.09-.82-1.31-1.22-2.8-1.22-4.46 0-2.76 1.04-4.91 3.11-6.45 2.07-1.55 4.69-2.32 7.86-2.32 1.56 0 3.02.17 4.36.51 1.34.34 2.37.73 3.09 1.17v-1.58c0-1.94-.68-3.5-2.04-4.67-1.36-1.17-3.08-1.76-5.15-1.76-1.46 0-2.81.32-4.03.94a7.47 7.47 0 0 0-2.91 2.63l-3.27-2.45c1.02-1.56 2.42-2.79 4.21-3.67 1.79-.88 3.77-1.33 5.94-1.33 3.54 0 6.32.93 8.34 2.78 2.02 1.85 3.04 4.38 3.04 7.58v16.48h-4.13v-3.72h-.2c-.75 1.26-1.87 2.33-3.37 3.21-1.5.88-3.18 1.33-5.05 1.33-1.92-.01-3.62-.38-5.11-1.13zm9.59-3.83a8.51 8.51 0 0 0 3.01-3.01c.75-1.26 1.12-2.64 1.12-4.13-.82-.54-1.82-.99-3.01-1.33-1.19-.34-2.45-.51-3.78-.51-2.38 0-4.18.49-5.38 1.48-1.21.99-1.81 2.26-1.81 3.83 0 1.43.54 2.59 1.63 3.47 1.09.89 2.47 1.33 4.13 1.33 1.47 0 2.83-.38 4.09-1.13z" />
  </g>
</svg>