<svg xmlns="http://www.w3.org/2000/svg" xmlns:xlink="http://www.w3.org/1999/xlink" viewBox="0 0 1602.3 424.7">
  <style>.st1{display:inline;fill:#666}.st6{fill:#00bfa5}.st7{opacity:.3}.st8{fill:#04a88c}.st9{fill:#1ce9b6}.st10{fill:#4285f4}.st11{opacity:.4}.st13{fill:#2a6fd3}.st14{fill:#4fc3f7}.st24{fill:#666}</style>
  <image width="621" height="486" xlink:href="2B227B7B.png" transform="matrix(.24 0 0 .24 198.1671 153.27)" overflow="visible" opacity=".15" />
  <defs>
    <path id="SVGID_1_" d="M363.5 289c.7-.9 1.1-1.9 1.3-3.1.6-2.1.5-4.5.2-5.8V140.3c0-4.2-3.4-7.6-7.7-7.6h-32c-4.2 0-7.7 3.6-7.7 7.7l-.5 68.9-15.5-23.7c-1.6-2.9-4.6-4.8-7.5-5h-31.2c-3.1 0-5.6 1.6-7.4 4.4l-17.7 25.4v-69.9c0-4.2-2.9-7.6-7.2-7.6h-32.5c-4.2 0-7.7 3.4-7.7 7.7V282c-.9 5.2 2.3 10.1 8.1 10.1H230.8c3 0 5.6-1.7 7.4-4.5l39.7-60.1 40.4 60.2c.1.1.2.3.2.4 0 .1.1.1.1.2 0 0 0 .1.1.1l.9 1.2c1.3 1.6 2.8 2.3 4.6 2.5.4 0 .7.1 1.1.1h32.6c2.9-.2 4.4-1.5 5.6-3.2z" />
  </defs>
  <clipPath id="SVGID_2_">
    <use xlink:href="#SVGID_1_" overflow="visible" />
  </clipPath>
  <g clip-path="url(#SVGID_2_)">
    <linearGradient id="SVGID_3_" gradientUnits="userSpaceOnUse" x1="164.1895" y1="162.7394" x2="263.4009" y2="261.9509">
      <stop offset="0" stop-color="#fff" stop-opacity=".2" />
      <stop offset="1" stop-color="#fff" stop-opacity="0" />
    </linearGradient>
    <path d="M230.1 292.1h-32.7c-4.2 0-7.7-3.4-7.7-7.7V140.3c0-4.2 3.4-7.7 7.7-7.7h32.7c4.2 0 7.7 3.4 7.7 7.7v144.1c0 4.2-3.4 7.7-7.7 7.7z" opacity=".3" fill="url(#SVGID_3_)" />
    <path class="st6" d="M357.4 292.1h-32.5c-4.2 0-7.7-3.4-7.7-7.7V140.3c0-4.1 3.4-7.7 7.7-7.7h32.5c4.2 0 7.7 3.4 7.7 7.7v144.1c-.1 4.2-3.5 7.7-7.7 7.7z" />
    <defs>
      <path id="SVGID_4_" d="M365 266.8v13.7c.1 4.6-3.2 9.6-3.2 9.6l-40.7 1.1-61.7-110.6h34c4.7 0 6.4 2.8 6.4 2.8l17.3 25.7v-8.8l47.9 66.5z" />
    </defs>
    <clipPath id="SVGID_5_">
      <use xlink:href="#SVGID_4_" overflow="visible" />
    </clipPath>
    <g transform="skewY(.000002)" opacity=".2" clip-path="url(#SVGID_5_)">
      <image width="175" height="192" xlink:href="2B227B79.png" transform="matrix(.3564 -.5361 .6696 .4451 219.2246 247.1443)" overflow="visible" />
    </g>
    <g class="st7">
      <path class="st8" d="M364.3 284.4V140.3c0-3.8-3-7.2-7.3-7.6 4.7 0 8.1 3.4 8 7.6v144.1h-.7z" />
    </g>
    <g class="st7">
      <path class="st9" d="M318 284.8h-.7V140.7c-.1-2.8 1.1-4.9 2.7-6.2 1.2-1 2.9-1.7 4.3-1.8h33.5c2 0 4.5 1.2 6 3.4.8 1.2 1.3 2.8 1.3 4.6 0-4-3.3-7.3-7.3-7.3h-32.5c-2.5 0-4.6 1-5.8 2.7-.7.9-1.4 2.2-1.5 3.5-.1 1.2-.1 2.5-.1 2.9l.1 142.3z" />
    </g>
    <path class="st10" d="M230.1 292.1l-31.9-.6c-4.2 0-8.3-2.8-8.3-7V140.3c0-4.2 3.4-7.7 7.7-7.7h32.5c4.2 0 7.7 3.4 7.7 7.7v144.1c0 4.2-3.4 7.7-7.7 7.7z" />
    <path class="st9" d="M255 192.9l62.9 94.7c2 3.6 4.3 4.4 7.4 4.4h32.1c8.3 0 8.7-10.1 7.4-12.4l-63.9-94.8c-1.8-2.8-4.3-4.4-7.4-4.4" />
    <path d="M325.9 292.1c-3.1 0-5.8-.5-7.9-4.2l-40.2-60.6-22.5-34.2.6-.4 62.6 94.6.2.4c2 3.5 4.3 4.4 7.2 4.4z" fill="#46f7c5" />
    <g class="st7">
      <path class="st13" d="M237.8 211.4h-.4l.2-71.5.2-.1z" />
    </g>
    <g class="st7">
      <path class="st14" d="M190.6 282.1h-.6V140.5c0-.4 0-.8.1-1.2.3-2.2 1.5-4 3.1-5.2 1.2-.9 2.8-1.4 4.4-1.4h32.9c2.2 0 4.3 1.2 5.6 2.8 1.1 1.3 1.7 3 1.7 4.4h-.2c0-2.6-3-6.6-7.2-6.6h-32.9c-2.2 0-4.1 1-5.4 2.6-.6.8-1.9 2.7-1.9 5.4l.4 140.8z" />
    </g>
    <path d="M357.3 292.1h-32c-3.1 0-5.2-.6-7.4-4.4l.6-.4c2 3.5 3.9 4 6.7 4h32c2.8 0 4.7-1 6-3.3 1.8-3.1 1.6-6.6.9-7.8l-64.2-95.1.6-.4 64.2 95.1c.9 1.6.2 7-.9 8.6-.9 1.7-2.6 3.7-6.5 3.7z" fill="#24ce9e" />
    <path class="st14" d="M230.7 292H198c-6.7 0-9.9-6.4-7.4-12.4l64.4-94.8c1.8-2.8 4.3-4.4 7.4-4.4h31.2c6.4 0 10.2 6.8 7.2 12.4l-62.7 94.7c-1.8 2.9-4.3 4.5-7.4 4.5z" />
    <g class="st7">
      <path d="M203.1 292h-4.7c-3.3 0-5.7-1.3-7.3-3.6-1.6-2.5-1.8-5.7-.5-8.8l.1-.1 64.3-94.7c2-3 4.6-4.3 7.6-4.3h31.2c1.2 0 2.3.3 3.3.8.8.4 1.5.9 2.1 1.5.6.6 1.1 1.2 1.5 2 0 0-4.1-3.5-6.9-3.5h-31.2c-2.8 0-5.2 1.2-7 4L191.2 280c-1.2 2.9-1 5.9.4 8.1 1.4 2.1 3.7 3.6 6.6 3.6l4.9.3z" fill="#6ed2f4" />
    </g>
    <g class="st7">
      <path d="M230.7 292h-33.5c-1.6-.1-3.1-.7-4.3-1.6l-1.2-1.2c1.1.8 3.9 1.9 5.4 2 1.2.1 33.3.1 33.7.1 2.9 0 5.3-1.5 7.1-4.3l62.6-94.7c1.4-2.6 1.2-5.3-.3-7.8-.5-.9-1.3-2.3-2.4-2.9-1.8-1.1-1.2-.7 0 0 1.1.6 2 1.5 2.8 2.6 1.7 2.6 1.8 6.2.5 8.5v.1c-5.2 7.9-13.8 20.9-23 34.8-18.6 28.1-39.6 59.9-39.6 59.9-2.1 2.9-4.7 4.5-7.8 4.5z" fill="#30a5ce" />
    </g>
  </g>
  <g class="st7">
    <path class="st14" d="M204.8 313.3c0-2.8-2.5-4.8-5.2-4.8l-37.2-.3c-.9 0-1.9-.3-2.7-.7l-.1-.1c-.2-.1-.4-.2-.6-.4l-.2-.2c.5.4 1.2.8 1.9.9.1 0 .5.1.6.1h38.2c1.2 0 2.3.4 3.1 1 .6.5 1.2 1.1 1.5 1.9.6.8.7 1.4.7 2.6zM130.1 84.8h69.7c2.4 0 5.1 2 5.1 5 0-2.6-3-4.4-5.1-4.4h-69.7c-.1 0-.2 0-.4.1l-.9-.5c.3-.1.8-.2 1.3-.2z" />
  </g>
  <g class="st7">
    <path class="st9" d="M392.2 116.9c3 0 5.4 1.8 5.4 4.8l.1 180.9c0 1.7-.5 3.3-1.6 4.4-1.1 1.1-2.7 1.7-4.5 1.7h-37c-2.6 0-4.5 1.9-4.5 4.4v21.3c0 1.2.3 2.8 1.3 3.8 1.2 1.2 3.1 1.6 3.1 1.6-.3 0-.6 0-.8-.1-2.8-.5-4.4-2.6-4.4-5.3v-21.3c0-3 2.2-5.2 5.2-5.2h37c1.6 0 3-.5 4-1.5s1.5-2.4 1.4-3.9V121.6c.2-2.5-2.2-4.7-4.7-4.7zM354.7 116.2h37.5M354.7 116.9c-3.3 0-5.3-2.4-5.3-5.4V89.6c0-2.3 2.1-4.8 5.1-4.8.1 0 57.1.1 69.3 0 1.6 0 2.8.9 2.8.9l-1-.2h-71c-2.5.1-4.3 1.7-4.3 4.2l-.2 21.9c0 2.6 1.9 5.4 4.5 5.4" />
  </g>
  <path class="st10" d="M199.7 339.9h-69.6c-2.8 0-5.1-2.3-5.1-5.1V89.9c0-2.8 2.3-5.1 5.1-5.1h69.6c2.8 0 5.1 2.3 5.1 5.1v21.7c0 2.8-2.3 5.1-5.1 5.1H162c-2.8 0-5.1 2.3-5.1 5.1v180.9c0 2.8 2.3 5.1 5.1 5.1h37.7c2.8 0 5.1 2.3 5.1 5.1v21.9c0 2.8-2.3 5.1-5.1 5.1z" />
  <g class="st7">
    <path class="st13" d="M130 339.9c-1.9 0-3.5-1.1-4.5-2.9.9 1.6 2.8 2.2 4.5 2.2h69.6c2.7 0 4.5-2 4.5-4l.2-21.8s-.1-1.7-.2-2l-.4-1.6.3.5s.7 1.2.7 2.5v22.4c0 2.3-2.3 4.7-5.2 4.7H130zM161.6 307.8c-1.3 0-5.4-1.7-5.4-4.7v-181c0-3 2.3-6.3 5.3-6.3h37.3c2.5 0 5.3-1.2 5.3-3.9V90.3c0-2.6-2.1-5.5-4.7-5.5 1.9-.1 3.5.7 4.5 2.1.7.9 1.1 2.1 1 3.4v21.5s0 .3-.1.7c-.1.7-.4 1.4-.8 2-.5.7-1.2 1.3-1.9 1.7-.9.5-2.1.6-3.3.5h-36.9c-.9 0-1.6.3-2.3.7-1.7 1-2.7 2.8-2.6 4.8v180.9c0 1.1.5 2 1.1 2.7.7 1.2 2.1 1.9 3.5 2z" />
  </g>
  <path class="st6" d="M354.4 84.8h69.3c2.8 0 5.1 2.3 5.1 5.1v244.9c0 2.8-2.3 5.1-5.1 5.1h-69.3c-2.8 0-5.1-2.3-5.1-5.1v-21.7c0-2.8 2.3-5.1 5.1-5.1H392c2.8 0 5.1-2.3 5.1-5.1V122c0-2.8-2.3-5.1-5.1-5.1h-37.5c-2.8 0-5.1-2.3-5.1-5.1V89.9c0-2.8 2.2-5.1 5-5.1z" />
  <g class="st7">
    <path class="st8" d="M425.3 339.6c1.7-.8 2.7-3 2.7-4.8V90.2c0-1.9-1.1-4.3-2.7-5 1.7.6 3 2 3.3 3.9.1.4.1.8.1 1.2v244.6c.1 2-1.1 3.9-3.4 4.7z" />
  </g>
  <g class="st7">
    <path class="st8" d="M424.5 339.8c-.2 0-.6.1-.8.1h-68.1c-.9 0-1.6 0-2.3-.1-.5-.1-1.3-.4-1.9-.9l-.3-.3-.2-.2s1.3.6 1.9.7c1.2.2 1.9.1 2.8.1h.6l67.7.1c1 0 2.8-.4 3.6-1l-.3.3c-.5.5-1.2.9-2 1.1-.1 0-.6.1-.7.1z" />
  </g>
  <g class="st11">
    <path class="st8" d="M349.4 111.5c0 2.6 2.7 4.7 5.3 4.7h37.5c3 0 4.8 2.2 4.8 5.2-.2-2.3-2.2-4.6-4.8-4.6h-37.5c-3 0-5.1-2.3-5.3-4.5v-.8z" />
  </g>
  <g class="st11">
    <path class="st14" d="M128.8 85l.9.5c-2.4.4-3.9 2.6-3.9 4.4v244.6c0 1.9 1.1 4.3 2.7 5-1.7-.6-3-2-3.3-3.9-.1-.4-.1-.8-.1-1.2V89.8c-.1-2 1.4-4.3 3.7-4.8z" />
  </g>
  <g>
    <linearGradient id="SVGID_6_" gradientUnits="userSpaceOnUse" x1="126.1485" y1="212.3532" x2="205.9314" y2="212.3532">
      <stop offset="0" stop-color="#fff" stop-opacity=".1" />
      <stop offset="1" stop-color="#fff" stop-opacity="0" />
    </linearGradient>
    <path d="M200.8 339.9h-69.6c-2.8 0-5.1-2.3-5.1-5.1V89.9c0-2.8 2.3-5.1 5.1-5.1h69.6c2.8 0 5.1 2.3 5.1 5.1v21.7c0 2.8-2.3 5.1-5.1 5.1h-37.7c-2.8 0-5.1 2.3-5.1 5.1v180.9c0 2.8 2.3 5.1 5.1 5.1h37.7c2.8 0 5.1 2.3 5.1 5.1v21.9c0 2.8-2.3 5.1-5.1 5.1z" fill="url(#SVGID_6_)" />
    <g class="st7">
      <linearGradient id="SVGID_7_" gradientUnits="userSpaceOnUse" x1="126.6382" y1="324.8345" x2="205.9271" y2="324.8345">
        <stop offset="0" stop-color="#fff" stop-opacity=".1" />
        <stop offset="1" stop-color="#fff" stop-opacity="0" />
      </linearGradient>
      <path d="M131.1 339.9c-1.9 0-3.5-1.1-4.5-2.9.9 1.6 2.8 2.2 4.5 2.2h69.6c2.7 0 4.5-2 4.5-4l.2-21.8s-.1-1.7-.2-2l-.4-1.6.3.5s.7 1.2.7 2.5v22.4c0 2.3-2.3 4.7-5.2 4.7h-69.5z" fill="url(#SVGID_7_)" />
      <g>
        <linearGradient id="SVGID_8_" gradientUnits="userSpaceOnUse" x1="157.227" y1="196.3105" x2="205.9286" y2="196.3105">
          <stop offset="0" stop-color="#fff" stop-opacity=".1" />
          <stop offset="1" stop-color="#fff" stop-opacity="0" />
        </linearGradient>
        <path d="M162.7 307.8c-1.3 0-5.4-1.7-5.4-4.7V122.2c0-3 2.3-6.3 5.3-6.3h37.3c2.5 0 5.3-1.2 5.3-3.9V90.3c0-2.6-2.1-5.5-4.7-5.5 1.9-.1 3.5.7 4.5 2.1.7.9 1.1 2.1 1 3.4v21.5s0 .3-.1.7c-.1.7-.4 1.4-.8 2-.5.7-1.2 1.3-1.9 1.7-.9.5-2.1.6-3.3.5H163c-.9 0-1.6.3-2.3.7-1.7 1-2.7 2.8-2.6 4.8v180.9c0 1.1.5 2 1.1 2.7.8 1.2 2.1 1.9 3.5 2z" fill="url(#SVGID_8_)" />
      </g>
    </g>
    <linearGradient id="SVGID_9_" gradientUnits="userSpaceOnUse" x1="350.4848" y1="212.3533" x2="429.9119" y2="212.3533">
      <stop offset="0" stop-color="#fff" stop-opacity=".1" />
      <stop offset="1" stop-color="#fff" stop-opacity="0" />
    </linearGradient>
    <path d="M355.6 84.8h69.3c2.8 0 5.1 2.3 5.1 5.1v244.9c0 2.8-2.3 5.1-5.1 5.1h-69.3c-2.8 0-5.1-2.3-5.1-5.1v-21.7c0-2.8 2.3-5.1 5.1-5.1h37.5c2.8 0 5.1-2.3 5.1-5.1V122c0-2.8-2.3-5.1-5.1-5.1h-37.5c-2.8 0-5.1-2.3-5.1-5.1V89.9c0-2.8 2.3-5.1 5.1-5.1z" fill="url(#SVGID_9_)" />
    <g class="st7">
      <linearGradient id="SVGID_10_" gradientUnits="userSpaceOnUse" x1="426.4569" y1="212.3676" x2="429.9119" y2="212.3676">
        <stop offset="0" stop-color="#fff" stop-opacity=".1" />
        <stop offset="1" stop-color="#fff" stop-opacity="0" />
      </linearGradient>
      <path d="M426.5 339.6c1.7-.8 2.7-3 2.7-4.8V90.2c0-1.9-1.1-4.3-2.7-5 1.7.6 3 2 3.3 3.9.1.4.1.8.1 1.2v244.6c0 2-1.2 3.9-3.4 4.7z" fill="url(#SVGID_10_)" />
    </g>
    <g class="st7">
      <linearGradient id="SVGID_11_" gradientUnits="userSpaceOnUse" x1="351.939" y1="339.0973" x2="428.5191" y2="339.0973">
        <stop offset="0" stop-color="#fff" stop-opacity=".1" />
        <stop offset="1" stop-color="#fff" stop-opacity="0" />
      </linearGradient>
      <path d="M425.6 339.8c-.2 0-.6.1-.8.1h-68.1c-.9 0-1.6 0-2.3-.1-.5-.1-1.3-.4-1.9-.9l-.3-.3-.2-.2s1.3.6 1.9.7c1.2.2 1.9.1 2.8.1h.6l67.7.1c1 0 2.8-.4 3.6-1l-.3.3c-.5.5-1.2.9-2 1.1-.1 0-.6.1-.7.1z" fill="url(#SVGID_11_)" />
    </g>
  </g>
  <g>
    <path class="st24" d="M537.8 121.3h9.8l13.5 54.6 1.2 5.1h.4l1.6-5.1 16.6-54.6h9.1l15.9 54.6 1.6 5.1h.4l14.6-59.7h9.8l-20 74.4h-9.1l-15.8-53.8-1.7-5.8h-.4l-1.8 5.8-16.4 53.8H558l-20.2-74.4zM645.1 193.6c-4.2-2.5-7.4-5.9-9.7-10.2-2.3-4.3-3.5-9-3.5-14.2 0-5.2 1.2-9.9 3.5-14.2 2.3-4.3 5.6-7.7 9.7-10.2 4.2-2.5 8.8-3.7 14-3.7 5.2 0 9.9 1.2 14 3.7s7.4 5.9 9.7 10.2c2.3 4.3 3.5 9 3.5 14.2 0 5.2-1.2 9.9-3.5 14.2-2.3 4.3-5.6 7.7-9.7 10.2-4.2 2.5-8.8 3.7-14 3.7-5.1 0-9.8-1.2-14-3.7zm23.1-6.7c2.8-1.6 5.1-4 6.8-7 1.7-3 2.5-6.6 2.5-10.7s-.8-7.7-2.5-10.7c-1.7-3-3.9-5.4-6.8-7-2.8-1.6-5.8-2.4-9.1-2.4s-6.3.8-9.1 2.4c-2.8 1.6-5.1 4-6.8 7-1.7 3-2.5 6.6-2.5 10.7s.8 7.7 2.5 10.7c1.7 3 4 5.4 6.8 7 2.8 1.6 5.9 2.4 9.1 2.4 3.3 0 6.3-.8 9.1-2.4zM695.6 142.7h8.4v7.8h.4c1.5-2.7 3.8-5 6.9-6.8 3-1.8 6.3-2.7 9.7-2.7 3.9 0 7.3.9 10.1 2.8 2.9 1.9 4.9 4.4 6.2 7.5 1.9-3.1 4.3-5.6 7.4-7.5 3.1-1.9 6.7-2.8 10.8-2.8 6.1 0 10.7 1.9 13.8 5.6 3.1 3.7 4.6 8.7 4.6 15.1v34h-8.7v-32.6c0-4.9-1-8.5-3-10.7-2-2.2-5-3.3-8.9-3.3-2.6 0-5 .8-7.2 2.3-2.1 1.5-3.8 3.6-5 6.1-1.2 2.6-1.8 5.3-1.8 8.3v29.9h-8.8v-32.5c0-5-1-8.6-3-10.8-2-2.2-5-3.3-8.8-3.3-2.6 0-5 .8-7.2 2.3-2.1 1.6-3.8 3.6-5 6.2-1.2 2.6-1.8 5.4-1.8 8.4v29.7h-8.8v-53zM796.5 193.7c-4-2.4-7.2-5.8-9.4-10-2.3-4.3-3.4-9.1-3.4-14.4 0-5.1 1.1-9.8 3.2-14.1 2.1-4.3 5.1-7.7 9-10.3 3.9-2.6 8.4-3.8 13.5-3.8 5.2 0 9.7 1.2 13.5 3.5 3.8 2.3 6.7 5.5 8.8 9.6 2 4.1 3.1 8.8 3.1 14 0 1-.1 1.9-.3 2.7h-41.9c.2 4 1.2 7.4 2.9 10.2 1.7 2.8 3.9 4.8 6.6 6.2 2.7 1.4 5.5 2.1 8.4 2.1 6.8 0 12-3.2 15.7-9.6l7.5 3.6c-2.3 4.3-5.4 7.7-9.3 10.2-3.9 2.5-8.6 3.7-14.2 3.7-5.2 0-9.7-1.2-13.7-3.6zm28.8-30.1c-.1-2.2-.8-4.4-1.9-6.6-1.1-2.2-2.9-4.1-5.2-5.6-2.4-1.5-5.4-2.3-9-2.3-4.2 0-7.7 1.3-10.5 4-2.9 2.7-4.8 6.2-5.7 10.5h32.3zM845 142.7h8.4v7.8h.4c1.5-2.6 3.8-4.9 7-6.7 3.2-1.8 6.6-2.8 10.2-2.8 6.4 0 11.2 1.9 14.6 5.6 3.4 3.7 5 8.7 5 15.1v34h-8.8v-32.6c0-4.9-1.2-8.5-3.5-10.7-2.4-2.2-5.6-3.3-9.7-3.3-2.8 0-5.4.8-7.6 2.4-2.3 1.6-4 3.7-5.2 6.3-1.2 2.6-1.9 5.3-1.9 8.2v29.8H845v-53.1zM940.2 129.7h-20.9v-8.4h50.5v8.4H949v66h-8.8v-66zM980.8 193.7c-4-2.4-7.2-5.8-9.4-10-2.3-4.3-3.4-9.1-3.4-14.4 0-5.1 1.1-9.8 3.2-14.1 2.1-4.3 5.1-7.7 9-10.3 3.9-2.6 8.4-3.8 13.5-3.8 5.2 0 9.7 1.2 13.5 3.5 3.8 2.3 6.7 5.5 8.8 9.6 2 4.1 3.1 8.8 3.1 14 0 1-.1 1.9-.3 2.7h-41.9c.2 4 1.2 7.4 2.9 10.2 1.7 2.8 3.9 4.8 6.6 6.2 2.7 1.4 5.5 2.1 8.4 2.1 6.8 0 12-3.2 15.7-9.6l7.5 3.6c-2.3 4.3-5.4 7.7-9.3 10.2-3.9 2.5-8.6 3.7-14.2 3.7-5.1 0-9.7-1.2-13.7-3.6zm28.9-30.1c-.1-2.2-.8-4.4-1.9-6.6-1.1-2.2-2.9-4.1-5.2-5.6-2.4-1.5-5.4-2.3-9-2.3-4.2 0-7.7 1.3-10.5 4-2.9 2.7-4.8 6.2-5.7 10.5h32.3zM1040 193.6c-4.1-2.5-7.3-5.8-9.6-10.1s-3.4-9.1-3.4-14.4c0-5.3 1.1-10.1 3.4-14.4 2.3-4.3 5.5-7.7 9.6-10.1 4.1-2.4 8.7-3.6 13.8-3.6 5.7 0 10.6 1.3 14.5 4 3.9 2.7 6.7 6.2 8.4 10.6l-8 3.3c-1.3-3.3-3.3-5.7-5.9-7.4-2.6-1.7-5.7-2.5-9.4-2.5-3.1 0-6 .8-8.7 2.5-2.7 1.7-4.9 4.1-6.5 7.1-1.6 3-2.4 6.5-2.4 10.5 0 3.9.8 7.4 2.4 10.5 1.6 3 3.8 5.4 6.5 7.1 2.7 1.7 5.6 2.5 8.7 2.5 3.7 0 7-.9 9.7-2.6 2.7-1.7 4.7-4.2 6-7.4l7.9 3.3c-1.8 4.4-4.7 7.9-8.7 10.6-4 2.7-8.8 4.1-14.5 4.1-5.1.1-9.7-1.1-13.8-3.6zM1086.6 121.3h8.8v21.9l-.4 7.3h.4c1.5-2.7 3.8-5 6.9-6.8 3.1-1.8 6.6-2.7 10.3-2.7 6.4 0 11.4 1.9 14.7 5.7 3.4 3.8 5.1 8.8 5.1 15v34h-8.8v-32.6c0-4.8-1.2-8.3-3.6-10.6-2.4-2.3-5.6-3.4-9.5-3.4-2.8 0-5.3.8-7.6 2.5s-4.2 3.8-5.5 6.4c-1.4 2.6-2 5.4-2 8.2v29.5h-8.8v-74.4zM1145.2 142.7h8.4v7.8h.4c1.5-2.7 3.8-5 6.9-6.8 3-1.8 6.3-2.7 9.7-2.7 3.9 0 7.3.9 10.1 2.8 2.9 1.9 4.9 4.4 6.2 7.5 1.9-3.1 4.3-5.6 7.4-7.5 3.1-1.9 6.7-2.8 10.8-2.8 6.1 0 10.7 1.9 13.8 5.6 3.1 3.7 4.6 8.7 4.6 15.1v34h-8.7v-32.6c0-4.9-1-8.5-3-10.7-2-2.2-5-3.3-8.9-3.3-2.6 0-5 .8-7.2 2.3-2.1 1.5-3.8 3.6-5 6.1-1.2 2.6-1.8 5.3-1.8 8.3v29.9h-8.8v-32.5c0-5-1-8.6-3-10.8-2-2.2-5-3.3-8.8-3.3-2.6 0-5 .8-7.2 2.3-2.1 1.6-3.8 3.6-5 6.2-1.2 2.6-1.8 5.4-1.8 8.4v29.7h-8.8v-53zM1242.1 195c-3-1.5-5.4-3.6-7.1-6.3-1.7-2.7-2.5-5.7-2.5-9.1 0-5.6 2.1-10 6.3-13.1 4.2-3.1 9.6-4.7 16-4.7 3.2 0 6.1.3 8.9 1 2.7.7 4.8 1.5 6.3 2.4V162c0-3.9-1.4-7.1-4.2-9.5-2.8-2.4-6.3-3.6-10.5-3.6-3 0-5.7.6-8.2 1.9-2.5 1.3-4.5 3.1-5.9 5.3l-6.6-5c2.1-3.2 4.9-5.7 8.6-7.5 3.6-1.8 7.7-2.7 12.1-2.7 7.2 0 12.9 1.9 17 5.7 4.1 3.8 6.2 8.9 6.2 15.4v33.6h-8.4V188h-.4c-1.5 2.6-3.8 4.7-6.9 6.5-3 1.8-6.5 2.7-10.3 2.7-3.9.1-7.4-.6-10.4-2.2zm19.5-7.7c2.6-1.5 4.6-3.6 6.1-6.1 1.5-2.6 2.3-5.4 2.3-8.4-1.7-1.1-3.7-2-6.1-2.7-2.4-.7-5-1-7.7-1-4.8 0-8.5 1-11 3s-3.7 4.6-3.7 7.8c0 2.9 1.1 5.3 3.3 7.1 2.2 1.8 5 2.7 8.4 2.7 3.1-.2 5.8-.9 8.4-2.4zM1290.7 121.3h8.8V168l24.9-25.3h11.2v.4l-20.8 21 21.3 31.2v.4h-10.5l-17-25.4-9.1 9.1v16.3h-8.8v-74.4zM1351.5 193.7c-4-2.4-7.2-5.8-9.4-10-2.3-4.3-3.4-9.1-3.4-14.4 0-5.1 1.1-9.8 3.2-14.1 2.1-4.3 5.1-7.7 9-10.3 3.9-2.6 8.4-3.8 13.5-3.8 5.2 0 9.7 1.2 13.5 3.5 3.8 2.3 6.7 5.5 8.8 9.6 2 4.1 3.1 8.8 3.1 14 0 1-.1 1.9-.3 2.7h-41.9c.2 4 1.2 7.4 2.9 10.2 1.7 2.8 3.9 4.8 6.6 6.2 2.7 1.4 5.5 2.1 8.4 2.1 6.8 0 12-3.2 15.7-9.6l7.5 3.6c-2.3 4.3-5.4 7.7-9.3 10.2-3.9 2.5-8.6 3.7-14.2 3.7-5.1 0-9.6-1.2-13.7-3.6zm28.9-30.1c-.1-2.2-.8-4.4-1.9-6.6-1.1-2.2-2.9-4.1-5.2-5.6-2.4-1.5-5.4-2.3-9-2.3-4.2 0-7.7 1.3-10.5 4-2.9 2.7-4.8 6.2-5.7 10.5h32.3zM1400 142.7h8.4v8.5h.4c1-2.9 3-5.3 6-7.3 3-1.9 6.1-2.9 9.3-2.9 2.4 0 4.5.4 6.2 1.1v9.5c-2.2-1.1-4.7-1.7-7.5-1.7-2.6 0-4.9.7-7.1 2.2-2.1 1.5-3.9 3.4-5.1 5.9-1.3 2.5-1.9 5.1-1.9 8v29.7h-8.8v-53zM1441.2 193.3c-3.8-2.7-6.5-6.1-8.1-10.2l7.9-3.5c1.3 3.2 3.3 5.6 5.9 7.4 2.6 1.7 5.5 2.6 8.6 2.6 3.3 0 6.2-.7 8.5-2 2.4-1.4 3.5-3.3 3.5-5.8 0-2.2-.9-4-2.8-5.3-1.9-1.4-4.8-2.5-8.8-3.5l-6.4-1.7c-4.2-1-7.7-2.8-10.4-5.3s-4.1-5.7-4.1-9.7c0-3 .9-5.7 2.8-8.1 1.8-2.3 4.3-4.1 7.3-5.3 3-1.2 6.3-1.9 9.9-1.9 4.6 0 8.8 1 12.4 3 3.6 2 6.2 4.8 7.7 8.4l-7.7 3.5c-2.4-4.7-6.5-7.1-12.6-7.1-2.9 0-5.5.7-7.6 2-2.2 1.4-3.3 3.1-3.3 5.1 0 1.9.8 3.5 2.3 4.7 1.5 1.2 3.8 2.2 6.9 3l7.7 2c5.2 1.3 9.1 3.3 11.7 5.9 2.6 2.6 3.9 5.8 3.9 9.5 0 3.3-.9 6.1-2.8 8.6s-4.4 4.3-7.6 5.7c-3.2 1.3-6.7 2-10.6 2-5.7 0-10.4-1.3-14.2-4zM559.6 298.3c-5.9-3.4-10.5-8-13.9-14-3.4-5.9-5-12.5-5-19.8s1.7-13.9 5-19.8c3.4-5.9 8-10.6 13.9-14 5.9-3.4 12.4-5.1 19.6-5.1 5.5 0 10.6 1.1 15.2 3.2s8.6 5.1 12 9l-6.3 6.1c-2.8-3.4-5.9-5.9-9.3-7.5-3.4-1.6-7.2-2.4-11.6-2.4-5.4 0-10.4 1.3-14.9 3.8s-8.1 6.1-10.8 10.7c-2.7 4.6-4 9.9-4 15.9s1.3 11.3 4 15.9 6.2 8.2 10.8 10.7c4.5 2.5 9.5 3.8 14.9 3.8 9 0 16.7-3.7 23-11.1l6.4 6.2c-3.5 4.1-7.7 7.3-12.8 9.7-5.1 2.4-10.6 3.6-16.6 3.6-7.1.2-13.7-1.5-19.6-4.9zM624 301.1c-3-1.5-5.4-3.6-7.1-6.3-1.7-2.7-2.5-5.7-2.5-9.1 0-5.6 2.1-10 6.3-13.1 4.2-3.1 9.6-4.7 16-4.7 3.2 0 6.1.3 8.9 1 2.7.7 4.8 1.5 6.3 2.4v-3.2c0-3.9-1.4-7.1-4.2-9.5-2.8-2.4-6.3-3.6-10.5-3.6-3 0-5.7.6-8.2 1.9-2.5 1.3-4.5 3.1-5.9 5.3l-6.6-5c2.1-3.2 4.9-5.7 8.6-7.5 3.6-1.8 7.7-2.7 12.1-2.7 7.2 0 12.9 1.9 17 5.7 4.1 3.8 6.2 8.9 6.2 15.4v33.6H652v-7.6h-.4c-1.5 2.6-3.8 4.7-6.9 6.5-3 1.8-6.5 2.7-10.3 2.7-3.9.1-7.3-.7-10.4-2.2zm19.6-7.8c2.6-1.5 4.6-3.6 6.1-6.1 1.5-2.6 2.3-5.4 2.3-8.4-1.7-1.1-3.7-2-6.1-2.7-2.4-.7-5-1-7.7-1-4.8 0-8.5 1-11 3s-3.7 4.6-3.7 7.8c0 2.9 1.1 5.3 3.3 7.1 2.2 1.8 5 2.7 8.4 2.7 3-.1 5.8-.9 8.4-2.4zM676.4 299.4c-3.8-2.7-6.5-6.1-8.1-10.2l7.9-3.5c1.3 3.2 3.3 5.6 5.9 7.4 2.6 1.7 5.5 2.6 8.6 2.6 3.3 0 6.2-.7 8.5-2 2.4-1.4 3.5-3.3 3.5-5.8 0-2.2-.9-4-2.8-5.3-1.9-1.4-4.8-2.5-8.8-3.5l-6.4-1.7c-4.2-1-7.7-2.8-10.4-5.3s-4.1-5.7-4.1-9.7c0-3 .9-5.7 2.8-8.1 1.8-2.3 4.3-4.1 7.3-5.3 3-1.2 6.3-1.9 9.9-1.9 4.6 0 8.8 1 12.4 3 3.6 2 6.2 4.8 7.7 8.4l-7.7 3.5c-2.4-4.7-6.5-7.1-12.6-7.1-2.9 0-5.5.7-7.6 2-2.2 1.4-3.3 3.1-3.3 5.1 0 1.9.8 3.5 2.3 4.7 1.5 1.2 3.8 2.2 6.9 3l7.7 2c5.2 1.3 9.1 3.3 11.7 5.9 2.6 2.6 3.9 5.8 3.9 9.5 0 3.3-.9 6.1-2.8 8.6s-4.4 4.3-7.6 5.7c-3.2 1.3-6.7 2-10.6 2-5.7 0-10.4-1.4-14.2-4zM728.3 301.1c-3-1.5-5.4-3.6-7.1-6.3-1.7-2.7-2.5-5.7-2.5-9.1 0-5.6 2.1-10 6.3-13.1 4.2-3.1 9.6-4.7 16-4.7 3.2 0 6.1.3 8.9 1 2.7.7 4.8 1.5 6.3 2.4v-3.2c0-3.9-1.4-7.1-4.2-9.5-2.8-2.4-6.3-3.6-10.5-3.6-3 0-5.7.6-8.2 1.9-2.5 1.3-4.5 3.1-5.9 5.3l-6.6-5c2.1-3.2 4.9-5.7 8.6-7.5 3.6-1.8 7.7-2.7 12.1-2.7 7.2 0 12.9 1.9 17 5.7 4.1 3.8 6.2 8.9 6.2 15.4v33.6h-8.4v-7.6h-.4c-1.5 2.6-3.8 4.7-6.9 6.5-3 1.8-6.5 2.7-10.3 2.7-3.9.1-7.3-.7-10.4-2.2zm19.6-7.8c2.6-1.5 4.6-3.6 6.1-6.1 1.5-2.6 2.3-5.4 2.3-8.4-1.7-1.1-3.7-2-6.1-2.7-2.4-.7-5-1-7.7-1-4.8 0-8.5 1-11 3s-3.7 4.6-3.7 7.8c0 2.9 1.1 5.3 3.3 7.1 2.2 1.8 5 2.7 8.4 2.7 3-.1 5.8-.9 8.4-2.4zM793 300.6c-3.2-1.8-5.6-4.1-7.2-6.7h-.4v7.8H777v-74.4h8.8v21.9l-.4 7.4h.4c1.6-2.7 4-5 7.2-6.8 3.2-1.8 6.8-2.8 10.9-2.8 4.7 0 9 1.2 12.9 3.6 3.9 2.4 6.9 5.8 9.1 10.1 2.2 4.3 3.3 9.1 3.3 14.4 0 5.4-1.1 10.2-3.3 14.5-2.2 4.3-5.3 7.6-9.1 10-3.9 2.4-8.2 3.6-12.9 3.6-4.1.2-7.7-.7-10.9-2.6zm18.4-7.7c2.7-1.7 4.9-4 6.5-7.1 1.6-3.1 2.4-6.6 2.4-10.5 0-3.9-.8-7.5-2.4-10.5-1.6-3.1-3.8-5.5-6.5-7.1-2.7-1.7-5.6-2.5-8.6-2.5s-5.9.8-8.6 2.5c-2.7 1.7-4.8 4-6.4 7.1-1.6 3-2.4 6.6-2.4 10.6s.8 7.5 2.4 10.6c1.6 3 3.7 5.4 6.4 7.1 2.7 1.7 5.6 2.5 8.6 2.5 3-.2 5.9-1 8.6-2.7zM838.9 227.3h8.8v74.4h-8.8v-74.4zM866.9 301.1c-3-1.5-5.4-3.6-7.1-6.3-1.7-2.7-2.5-5.7-2.5-9.1 0-5.6 2.1-10 6.3-13.1 4.2-3.1 9.6-4.7 16-4.7 3.2 0 6.1.3 8.9 1 2.7.7 4.8 1.5 6.3 2.4v-3.2c0-3.9-1.4-7.1-4.2-9.5-2.8-2.4-6.3-3.6-10.5-3.6-3 0-5.7.6-8.2 1.9-2.5 1.3-4.5 3.1-5.9 5.3l-6.6-5c2.1-3.2 4.9-5.7 8.6-7.5 3.6-1.8 7.7-2.7 12.1-2.7 7.2 0 12.9 1.9 17 5.7 4.1 3.8 6.2 8.9 6.2 15.4v33.6h-8.4v-7.6h-.4c-1.5 2.6-3.8 4.7-6.9 6.5-3 1.8-6.5 2.7-10.3 2.7-3.9.1-7.4-.7-10.4-2.2zm19.5-7.8c2.6-1.5 4.6-3.6 6.1-6.1 1.5-2.6 2.3-5.4 2.3-8.4-1.7-1.1-3.7-2-6.1-2.7-2.4-.7-5-1-7.7-1-4.8 0-8.5 1-11 3s-3.7 4.6-3.7 7.8c0 2.9 1.1 5.3 3.3 7.1 2.2 1.8 5 2.7 8.4 2.7 3.1-.1 5.9-.9 8.4-2.4zM915.5 248.7h8.4v7.8h.4c1.5-2.6 3.8-4.9 7-6.7 3.2-1.8 6.6-2.8 10.2-2.8 6.4 0 11.2 1.9 14.6 5.6 3.4 3.7 5 8.7 5 15.1v34h-8.8v-32.6c0-4.9-1.2-8.5-3.5-10.7-2.4-2.2-5.6-3.3-9.7-3.3-2.8 0-5.4.8-7.6 2.4-2.3 1.6-4 3.7-5.2 6.3-1.2 2.6-1.9 5.3-1.9 8.2v29.8h-8.8v-53.1zM983.9 299.7c-4.1-2.5-7.3-5.8-9.6-10.1s-3.4-9.1-3.4-14.4c0-5.3 1.1-10.1 3.4-14.4 2.3-4.3 5.5-7.7 9.6-10.1 4.1-2.4 8.7-3.6 13.8-3.6 5.7 0 10.6 1.3 14.5 4 3.9 2.7 6.7 6.2 8.4 10.6l-8 3.3c-1.3-3.3-3.3-5.7-5.9-7.4-2.6-1.7-5.7-2.5-9.4-2.5-3.1 0-6 .8-8.7 2.5-2.7 1.7-4.9 4.1-6.5 7.1-1.6 3-2.4 6.5-2.4 10.5 0 3.9.8 7.4 2.4 10.5 1.6 3 3.8 5.4 6.5 7.1 2.7 1.7 5.6 2.5 8.7 2.5 3.7 0 7-.9 9.7-2.6 2.7-1.7 4.7-4.2 6-7.4l7.9 3.3c-1.8 4.4-4.7 7.9-8.7 10.6-4 2.7-8.8 4.1-14.5 4.1-5.1.1-9.7-1.1-13.8-3.6zM1036.5 301.1c-3-1.5-5.4-3.6-7.1-6.3-1.7-2.7-2.5-5.7-2.5-9.1 0-5.6 2.1-10 6.3-13.1 4.2-3.1 9.6-4.7 16-4.7 3.2 0 6.1.3 8.9 1 2.7.7 4.8 1.5 6.3 2.4v-3.2c0-3.9-1.4-7.1-4.2-9.5-2.8-2.4-6.3-3.6-10.5-3.6-3 0-5.7.6-8.2 1.9-2.5 1.3-4.5 3.1-5.9 5.3l-6.6-5c2.1-3.2 4.9-5.7 8.6-7.5 3.6-1.8 7.7-2.7 12.1-2.7 7.2 0 12.9 1.9 17 5.7 4.1 3.8 6.2 8.9 6.2 15.4v33.6h-8.4v-7.6h-.4c-1.5 2.6-3.8 4.7-6.9 6.5-3 1.8-6.5 2.7-10.3 2.7-3.9.1-7.3-.7-10.4-2.2zm19.5-7.8c2.6-1.5 4.6-3.6 6.1-6.1 1.5-2.6 2.3-5.4 2.3-8.4-1.7-1.1-3.7-2-6.1-2.7-2.4-.7-5-1-7.7-1-4.8 0-8.5 1-11 3s-3.7 4.6-3.7 7.8c0 2.9 1.1 5.3 3.3 7.1 2.2 1.8 5 2.7 8.4 2.7 3.1-.1 5.9-.9 8.4-2.4z" />
  </g>
</svg>